<?xml version="1.0" encoding="UTF-8" standalone="no"?><!DOCTYPE svg PUBLIC "-//W3C//DTD SVG 1.1//EN" "http://www.w3.org/Graphics/SVG/1.1/DTD/svg11.dtd"><svg width="100%" height="100%" viewBox="0 0 512 512" version="1.1" xmlns="http://www.w3.org/2000/svg" xmlns:xlink="http://www.w3.org/1999/xlink" xml:space="preserve" xmlns:serif="http://www.serif.com/" style="fill-rule:evenodd;clip-rule:evenodd;stroke-linecap:round;stroke-linejoin:round;stroke-miterlimit:1.5;"><path d="M512,119.916l0,272.167c0,66.184 -53.733,119.916 -119.916,119.916l-272.167,0c-66.184,0 -119.916,-53.733 -119.916,-119.916l0,-272.167c0,-66.184 53.733,-119.916 119.916,-119.916l272.167,0c66.184,0 119.916,53.733 119.916,119.916Z" style="fill:url(#_Radial1);"/><g><path d="M256,48.76l179.475,103.62l0,207.24l-179.475,103.62l-179.475,-103.62l-0,-207.24l179.475,-103.62Z" style="fill:none;stroke:#00ff7b;stroke-width:24px;"/><path d="M185.665,204.06c0.888,-0.666 1.831,-0.999 2.83,-0.999c1.221,0 2.22,0.555 2.997,1.665l3.163,3.829c0.777,1.11 1.165,2.053 1.165,2.83c0,0.999 -0.61,1.998 -1.831,2.997l-55.269,41.619l55.269,41.619c1.221,0.999 1.831,1.998 1.831,2.997c0,0.777 -0.388,1.72 -1.165,2.83l-3.163,3.829c-0.777,1.11 -1.831,1.665 -3.163,1.665c-0.999,0 -1.942,-0.333 -2.83,-0.999l-53.938,-40.62c-2.109,-1.554 -3.773,-3.329 -4.994,-5.327c-1.221,-1.998 -1.831,-3.995 -1.831,-5.993c0,-1.998 0.61,-3.995 1.831,-5.993c1.221,-1.998 2.886,-3.773 4.994,-5.327l54.104,-40.62Z" style="fill:#00ff7b;fill-rule:nonzero;"/><path d="M380.44,244.68c2.109,1.554 3.773,3.329 4.994,5.327c1.221,1.998 1.831,3.995 1.831,5.993c0,1.998 -0.61,3.995 -1.831,5.993c-1.221,1.998 -2.886,3.773 -4.994,5.327l-53.938,40.62c-0.777,0.666 -1.72,0.999 -2.83,0.999c-1.332,0 -2.386,-0.555 -3.163,-1.665l-3.163,-3.829c-0.777,-1.11 -1.165,-2.053 -1.165,-2.83c0,-0.999 0.61,-1.998 1.831,-2.997l55.269,-41.619l-55.269,-41.619c-1.221,-0.999 -1.831,-1.998 -1.831,-2.997c0,-0.777 0.388,-1.72 1.165,-2.83l3.163,-3.829c0.777,-1.11 1.776,-1.665 2.997,-1.665c1.11,0 2.053,0.333 2.83,0.999l54.104,40.62Z" style="fill:#00ff7b;fill-rule:nonzero;"/><path d="M264.324,244.347c2.775,0 4.162,1.387 4.162,4.162l0,14.983c0,2.775 -1.387,4.162 -4.162,4.162l-16.647,0c-2.775,0 -4.162,-1.387 -4.162,-4.162l0,-14.983c0,-2.775 1.387,-4.162 4.162,-4.162l16.647,0Z" style="fill:#00ff7b;fill-rule:nonzero;"/></g><defs><radialGradient id="_Radial1" cx="0" cy="0" r="1" gradientUnits="userSpaceOnUse" gradientTransform="matrix(-480.33871,-478.912186,478.912186,-480.33871,497.546595,496.815412)"><stop offset="0" style="stop-color:#383739;stop-opacity:1"/><stop offset="1" style="stop-color:#130f13;stop-opacity:1"/></radialGradient></defs></svg>